<svg xmlns="http://www.w3.org/2000/svg" xmlns:xlink="http://www.w3.org/1999/xlink" viewBox="0 0 33.91 34.26"><defs><style>.cls-1,.cls-4{fill:none;}.cls-2{clip-path:url(#clip-path);}.cls-3{fill:url(#linear-gradient);}.cls-4{stroke:red;stroke-miterlimit:10;stroke-width:0.7px;}.cls-5,.cls-6{fill:red;}.cls-5{fill-rule:evenodd;}</style><clipPath id="clip-path"><path class="cls-1" d="M17,.81c-3.29,4.2-8.81.9-9,.75l-.15-.09-.13.13s-4.39,4.53-5.8,6l-.15.16L1.92,8C5.54,11.4,4.43,14,3.25,16.82,1.85,20.13.4,23.56,6.8,28.36a25.18,25.18,0,0,0,5,2.33c2.35.92,4.58,1.79,4.81,3a.24.24,0,0,0,.23.21h0a.26.26,0,0,0,.24-.21c.26-1.16,2.52-2,4.9-2.83A25.35,25.35,0,0,0,27,28.59c6.5-4.64,5.13-8.1,3.81-11.44-1.11-2.82-2.16-5.48,1.54-8.84l.17-.15L32.38,8C31,6.46,26.77,1.88,26.73,1.83l-.13-.14-.16.1c-.23.13-5.84,3.31-9-1L17.23.58h0Z"/></clipPath><linearGradient id="linear-gradient" x1="-25.33" y1="52.21" x2="-24.33" y2="52.21" gradientTransform="matrix(0, 30.78, 30.78, 0, -1590, 781.54)" gradientUnits="userSpaceOnUse"><stop offset="0" stop-color="#fff"/><stop offset="1" stop-color="#eaeaed"/></linearGradient></defs><title>Asset 1</title><g id="Layer_2" data-name="Layer 2"><g id="Layer_1-2" data-name="Layer 1"><g class="cls-2"><rect class="cls-3" x="0.11" y="0.47" width="33.68" height="33.5" transform="translate(-0.47 33.96) rotate(-89.31)"/></g><path class="cls-4" d="M16.8,33.67a25.71,25.71,0,0,0-5.05-3,25.54,25.54,0,0,1-5-2.33C.4,23.55,1.85,20.13,3.25,16.81,4.43,14,5.54,11.39,1.92,8l-.16-.16.15-.17c1.41-1.49,5.75-6,5.8-6l.13-.13L8,1.56c.24.15,5.76,3.45,9-.75l.19-.24.18.24c3.19,4.29,8.8,1.11,9,1l.16-.1.13.14S31,6.46,32.38,8l.15.17-.17.15c-3.7,3.36-2.65,6-1.54,8.84C32.14,20.49,33.51,24,27,28.59A25.35,25.35,0,0,1,22,30.82,26.26,26.26,0,0,0,16.8,33.67Z"/><polygon class="cls-5" points="26.12 7.17 8.75 6.96 8.73 8.94 16.07 9.03 16.02 13.51 18.24 13.54 18.29 9.06 26.09 9.15 26.12 7.17"/><rect class="cls-6" x="8.38" y="11.46" width="2.05" height="2.05" transform="translate(-3.2 21.74) rotate(-89.3)"/><path class="cls-6" d="M10.46,16.4H9.77l-.27-.55H8.24L8,16.37H7.3L8.56,14h.67Zm-1.16-1-.42-.9-.44.89Z"/><polygon class="cls-6" points="10.97 16.41 10.99 13.99 11.95 14.01 12.5 15.66 13.08 14.02 14.03 14.03 14 16.44 13.41 16.43 13.44 14.54 12.79 16.43 12.18 16.42 11.58 14.51 11.56 16.41 10.97 16.41"/><path class="cls-6" d="M14.84,14l1.26,0a3.88,3.88,0,0,1,.56,0,.8.8,0,0,1,.32.1.68.68,0,0,1,.24.2.45.45,0,0,1,.1.29.56.56,0,0,1-.13.31.7.7,0,0,1-.32.2.88.88,0,0,1,.44.23.51.51,0,0,1,.15.36.56.56,0,0,1-.11.32.65.65,0,0,1-.27.25,1.09,1.09,0,0,1-.43.11h-.76l-1.07,0Zm.63.41V15h.87a.57.57,0,0,0,.26-.08.24.24,0,0,0,.1-.19.22.22,0,0,0-.08-.18.38.38,0,0,0-.24-.09l-.54,0Zm0,1v.64h1a.43.43,0,0,0,.23-.09.26.26,0,0,0,.09-.21.24.24,0,0,0-.07-.18.36.36,0,0,0-.19-.11,2.73,2.73,0,0,0-.57-.05Z"/><path class="cls-6" d="M21,16.5h-.69L20,15.94l-1.26,0-.26.55h-.68l1.26-2.4h.67Zm-1.16-1-.42-.9-.44.89Z"/><polygon class="cls-6" points="21.9 16.51 21.92 14.5 20.99 14.49 20.99 14.08 23.49 14.11 23.49 14.52 22.56 14.51 22.53 16.52 21.9 16.51"/><path class="cls-6" d="M23.86,15.34a1.19,1.19,0,0,1,.15-.62,1,1,0,0,1,.3-.32,1.31,1.31,0,0,1,.4-.22,2.08,2.08,0,0,1,.68-.08,1.71,1.71,0,0,1,1.11.34,1.21,1.21,0,0,1,0,1.83,1.69,1.69,0,0,1-1.11.32,1.73,1.73,0,0,1-1.11-.34,1.09,1.09,0,0,1-.4-.91m.65,0a.82.82,0,0,0,.24.63.92.92,0,0,0,.63.21A.86.86,0,0,0,26,16a.75.75,0,0,0,.25-.62.76.76,0,0,0-.23-.63,1.07,1.07,0,0,0-1.26,0,.81.81,0,0,0-.25.62"/><polygon class="cls-6" points="19.99 13.59 19.54 13.59 19.58 9.67 26.78 9.75 26.81 6.58 7.95 6.38 7.91 9.57 15 9.65 14.96 13.52 14.5 13.52 14.54 10.11 7.45 10.02 7.5 5.92 27.28 6.16 27.23 10.24 20.04 10.13 19.99 13.59"/><path class="cls-6" d="M16.82,32.06c-.23-1-2.33-1.75-4.29-2.48A19,19,0,0,1,8.08,27.5c-6-4.52-4.61-7.9-3.25-11.16,1.13-2.7,2.2-5.26-1-8.46l-.15-.15.14-.16C5,6.23,8,3.4,8,3.37l.13-.12.15.09c.22.13,5.39,3.22,8.72-.82l.18-.22.17.22c3.37,4.21,9,1,9,1l.16-.09.13.14s2.73,3,3.88,4.38l.14.16-.15.15c-3.22,3.37-2.24,6-1.19,8.86,1.2,3.26,2.45,6.62-3.76,10.74a23.92,23.92,0,0,1-4.05,1.67c-2.16.74-4.47,1.53-4.73,2.58M4.31,7.71c3.22,3.35,2.07,6.12,1,8.8C3.9,19.76,2.62,22.82,8.35,27.13a18.73,18.73,0,0,0,4.34,2c1.88.7,3.56,1.33,4.14,2.27.66-1,2.57-1.68,4.58-2.37a24.06,24.06,0,0,0,3.95-1.63c5.89-3.91,4.76-7,3.57-10.19-1-2.79-2.1-5.68,1.15-9.19C29,6.81,27,4.53,26.46,4c-1,.5-6,2.85-9.26-.94-3.25,3.65-8.06,1.3-9,.8-.55.52-2.81,2.69-3.92,3.89"/><polygon class="cls-6" points="11.59 13.54 11.13 13.54 11.17 10.96 7.7 10.92 7.67 13.49 7.21 13.49 7.24 10.46 11.63 10.51 11.59 13.54"/><polygon class="cls-6" points="25.91 13.68 23.86 13.69 23.89 11.64 25.93 11.63 25.91 13.68"/><polygon class="cls-6" points="27.09 13.7 26.63 13.69 26.66 11.12 23.19 11.07 23.16 13.65 22.7 13.64 22.74 10.61 27.12 10.66 27.09 13.7"/><path class="cls-6" d="M14.1,27.77a9.34,9.34,0,0,1-5.76-6,13.45,13.45,0,0,1-.68-4.58l3.45,0c.21,6.2,3,7.09,3.33,7.17a3.17,3.17,0,0,1,.3-.34l.08-7h-.45l-.09,6.81c-.71-.35-2.6-1.75-2.72-6.85v-.23l-4.32,0,0,.21a13.24,13.24,0,0,0,.68,5,10,10,0,0,0,6.62,6.48,3.46,3.46,0,0,1-.42-.63"/><path class="cls-6" d="M27,17.18,27,17l-4.31,0v.22c-.24,5.07-2.16,6.44-2.89,6.78l.09-6.8-.46,0-.09,7.07.24.32h0c.13,0,3.15-.66,3.52-7.08l3.46,0A12.84,12.84,0,0,1,25.93,22a8.78,8.78,0,0,1-6.13,5.84,3.4,3.4,0,0,1-.4.59,9.38,9.38,0,0,0,7-6.29,12.84,12.84,0,0,0,.65-5"/><path class="cls-6" d="M17,23.19a2.93,2.93,0,0,1,1.11.22l.08-6.34L16,17l-.08,6.34A3,3,0,0,1,17,23.19"/><path class="cls-6" d="M16.93,29.49a3,3,0,0,1-1.07-.21v.4l2.19,0v-.42a3,3,0,0,1-1.12.2"/><path class="cls-6" d="M25.62,17.84l-1.79,0a8,8,0,0,1-4,7.39,3.39,3.39,0,0,1,.2,1.15,3.84,3.84,0,0,1-.11.91c5.85-2.38,5.67-9.43,5.67-9.43"/><path class="cls-6" d="M13.88,26.32a3.38,3.38,0,0,1,.25-1.2,8.05,8.05,0,0,1-3.79-7.49l-1.9,0s-.23,7,5.52,9.56a4.8,4.8,0,0,1-.08-.85"/><path class="cls-6" d="M14.61,27.45H14.4v0a2.79,2.79,0,0,1-.2-1.07,2.88,2.88,0,0,1,1.06-2.19l.21-.17-.12.44-.09.37a2.29,2.29,0,0,0,.33,2l.05.05,0,.06a1.07,1.07,0,0,1-1,.54m-.08-.17h.08a.9.9,0,0,0,.8-.4,2.56,2.56,0,0,1-.33-2.15c0-.09.05-.18.07-.28a2.69,2.69,0,0,0-.78,1.87,2.62,2.62,0,0,0,.16,1"/><path class="cls-6" d="M17,29.2a2.74,2.74,0,0,1-1.56-.51l-.21-.14h.26a4.15,4.15,0,0,0,1.77-.43c.45-.26.92-.59,1-1v0l0,0a.91.91,0,0,1,.77,0,.79.79,0,0,1,.4.65v.06A2.8,2.8,0,0,1,17,29.2m-1.24-.51A2.55,2.55,0,0,0,17,29a2.63,2.63,0,0,0,2.31-1.32.65.65,0,0,0-.31-.5.72.72,0,0,0-.57,0,2.16,2.16,0,0,1-1.08,1.09,4.09,4.09,0,0,1-1.59.43"/><path class="cls-6" d="M15.27,28.55h-.06l0,0a3,3,0,0,1-.73-1l-.06-.13h.14a1.09,1.09,0,0,0,1-.51l0-.08.08,0a1,1,0,0,0,.44.16.74.74,0,0,0,.55-.18.79.79,0,0,0,.3-.49v0l0,0a.73.73,0,0,1,1.17.31c.26.65-.31,1.09-1,1.48a4.46,4.46,0,0,1-2,.43m-.59-.93a2.55,2.55,0,0,0,.6.75,4.15,4.15,0,0,0,1.86-.4c.68-.4,1.09-.77.89-1.27a.59.59,0,0,0-.37-.35.58.58,0,0,0-.51.1,1,1,0,0,1-.35.56.9.9,0,0,1-.68.22,1.2,1.2,0,0,1-.44-.14,1.27,1.27,0,0,1-1,.53"/><path class="cls-6" d="M19.81,26.62l-.18-.36a3.18,3.18,0,0,0-1.12-1.21A1.89,1.89,0,0,0,17,24.72h0l0,0a.69.69,0,0,1-.31-.57.72.72,0,0,1,.35-.61l0,0h0a2.83,2.83,0,0,1,2.74,2.7Zm-2.44-2.13a2.59,2.59,0,0,1,1.22.42,3.29,3.29,0,0,1,1,.92,2.64,2.64,0,0,0-2.49-2.15.57.57,0,0,0-.25.46.51.51,0,0,0,.19.4,1,1,0,0,1,.35-.05"/><path class="cls-6" d="M16.2,27.08h-.06c-.62-.09-1-.65-1-1.5a5.1,5.1,0,0,1,.2-1.24c0-.1.05-.2.08-.31v0l0,0a2.78,2.78,0,0,1,1.31-.45l.22,0-.15.16a.7.7,0,0,0,.06,1l.08.07-.09.06a.7.7,0,0,0-.18.2A1,1,0,0,0,17,26.32l0,0v0a.76.76,0,0,1-.32.49.81.81,0,0,1-.48.19m-.61-3c0,.09-.05.18-.07.27a4.86,4.86,0,0,0-.2,1.2c0,.76.32,1.26.84,1.33a.62.62,0,0,0,.42-.14.72.72,0,0,0,.24-.33,1.15,1.15,0,0,1-.25-1.53l.15-.18a.85.85,0,0,1-.22-.53.8.8,0,0,1,.1-.48,2.66,2.66,0,0,0-1,.39"/><path class="cls-6" d="M19.46,27.72l-.07-.22a.69.69,0,0,0-.36-.45.88.88,0,0,0-.67,0l-.11,0v-.12a.75.75,0,0,0-.06-.29.8.8,0,0,0-.48-.45.75.75,0,0,0-.66.13l-.05,0,0,0A1,1,0,0,1,16.71,25c.3-.47.94-.45,1.8.06a2.88,2.88,0,0,1,1.27,1.57h0v0a2.81,2.81,0,0,1-.23.86Zm-.81-.93a1,1,0,0,1,.46.11.93.93,0,0,1,.36.35,3.08,3.08,0,0,0,.14-.6,2.76,2.76,0,0,0-1.18-1.45c-.45-.26-1.25-.63-1.58-.12A.85.85,0,0,0,17,26.15a.89.89,0,0,1,.75-.13,1,1,0,0,1,.59.55,1.29,1.29,0,0,1,.06.25,1.07,1.07,0,0,1,.25,0"/></g></g></svg>