<svg xmlns="http://www.w3.org/2000/svg" viewBox="0 0 33.91 34.26">
  <defs>
    <linearGradient id="linear-gradient" x1="-25.33" y1="52.21" x2="-24.33" y2="52.21" gradientTransform="matrix(0 30.78 30.78 0 -1590 781.54)" gradientUnits="userSpaceOnUse">
      <stop offset="0" stop-color="#fff"/>
      <stop offset="1" stop-color="#eaeaed"/>
    </linearGradient>
    <clipPath id="clip-path">
      <path d="M17 .81c-3.29 4.2-8.81.9-9 .75l-.15-.09-.13.13s-4.39 4.53-5.8 6l-.15.16.15.24c3.62 3.4 2.51 6 1.33 8.82C1.85 20.13.4 23.56 6.8 28.36a25.18 25.18 0 0 0 5 2.33c2.35.92 4.58 1.79 4.81 3a.24.24 0 0 0 .23.21.26.26 0 0 0 .24-.21c.26-1.16 2.52-2 4.9-2.83A25.35 25.35 0 0 0 27 28.59c6.5-4.64 5.13-8.1 3.81-11.44-1.11-2.82-2.16-5.48 1.54-8.84l.17-.15-.14-.16C31 6.46 26.77 1.88 26.73 1.83l-.13-.14-.16.1c-.23.13-5.84 3.31-9-1l-.21-.21Z" style="fill:none"/>
    </clipPath>
    <style>
      .cls-6{fill:red}
    </style>
  </defs>
  <g id="Layer_2" data-name="Layer 2">
    <g id="Layer_1-2" data-name="Layer 1">
      <g style="clip-path:url(#clip-path)">
        <path transform="rotate(-89.31 16.95072752 17.21784723)" style="fill:url(#linear-gradient)" d="M.11.47h33.68v33.5H.11z"/>
      </g>
      <path d="M16.8 33.67a25.71 25.71 0 0 0-5.05-3 25.54 25.54 0 0 1-5-2.33c-6.35-4.79-4.9-8.21-3.5-11.53C4.43 14 5.54 11.39 1.92 8l-.16-.16.15-.17c1.41-1.49 5.75-6 5.8-6l.13-.13.16.02c.24.15 5.76 3.45 9-.75l.19-.24.18.24c3.19 4.29 8.8 1.11 9 1l.16-.1.13.14S31 6.46 32.38 8l.15.17-.17.15c-3.7 3.36-2.65 6-1.54 8.84C32.14 20.49 33.51 24 27 28.59a25.35 25.35 0 0 1-5 2.23 26.26 26.26 0 0 0-5.2 2.85Z" style="stroke:red;stroke-miterlimit:10;stroke-width:.7px;fill:none"/>
      <path style="fill-rule:evenodd;fill:red" d="M26.12 7.17 8.75 6.96l-.02 1.98 7.34.09-.05 4.48 2.22.03.05-4.48 7.8.09.03-1.98z"/>
      <path class="cls-6" transform="rotate(-89.3 9.40362 12.48966808)" d="M8.38 11.46h2.05v2.05H8.38z"/>
      <path class="cls-6" d="M10.46 16.4h-.69l-.27-.55H8.24l-.24.52h-.7L8.56 14h.67Zm-1.16-1-.42-.9-.44.89ZM10.97 16.41l.02-2.42.96.02.55 1.65.58-1.64.95.01-.03 2.41-.59-.01.03-1.89-.65 1.89-.61-.01-.6-1.91-.02 1.9h-.59zM14.84 14h1.26a3.88 3.88 0 0 1 .56 0 .8.8 0 0 1 .32.1.68.68 0 0 1 .24.2.45.45 0 0 1 .1.29.56.56 0 0 1-.13.31.7.7 0 0 1-.32.2.88.88 0 0 1 .44.23.51.51 0 0 1 .15.36.56.56 0 0 1-.11.32.65.65 0 0 1-.27.25 1.09 1.09 0 0 1-.43.11h-1.83Zm.63.41V15h.87a.57.57 0 0 0 .26-.08.24.24 0 0 0 .1-.19.22.22 0 0 0-.08-.18.38.38 0 0 0-.24-.09h-.54Zm0 1v.64h1a.43.43 0 0 0 .23-.09.26.26 0 0 0 .09-.21.24.24 0 0 0-.07-.18.36.36 0 0 0-.19-.11 2.73 2.73 0 0 0-.57-.05ZM21 16.5h-.69l-.31-.56h-1.26l-.26.55h-.68l1.26-2.4h.67Zm-1.16-1-.42-.9-.44.89ZM21.9 16.51l.02-2.01-.93-.01v-.41l2.5.03v.41l-.93-.01-.03 2.01-.63-.01zM23.86 15.34a1.19 1.19 0 0 1 .15-.62 1 1 0 0 1 .3-.32 1.31 1.31 0 0 1 .4-.22 2.08 2.08 0 0 1 .68-.08 1.71 1.71 0 0 1 1.11.34 1.21 1.21 0 0 1 0 1.83 1.69 1.69 0 0 1-1.11.32 1.73 1.73 0 0 1-1.11-.34 1.09 1.09 0 0 1-.4-.91m.65 0a.82.82 0 0 0 .24.63.92.92 0 0 0 .63.21.86.86 0 0 0 .6-.18.75.75 0 0 0 .25-.62.76.76 0 0 0-.23-.63 1.07 1.07 0 0 0-1.26 0 .81.81 0 0 0-.25.62M19.99 13.59h-.45l.04-3.92 7.2.08.03-3.17-18.86-.2-.04 3.19 7.09.08-.04 3.87h-.46l.04-3.41-7.09-.09.05-4.1 19.78.24-.05 4.08-7.19-.11-.05 3.46z"/>
      <path class="cls-6" d="M16.82 32.06c-.23-1-2.33-1.75-4.29-2.48a19 19 0 0 1-4.45-2.08c-6-4.52-4.61-7.9-3.25-11.16 1.13-2.7 2.2-5.26-1-8.46l-.15-.15.14-.16C5 6.23 8 3.4 8 3.37l.13-.12.15.09c.22.13 5.39 3.22 8.72-.82l.18-.22.17.22c3.37 4.21 9 1 9 1l.16-.09.13.14s2.73 3 3.88 4.38l.14.16-.15.15c-3.22 3.37-2.24 6-1.19 8.86 1.2 3.26 2.45 6.62-3.76 10.74a23.92 23.92 0 0 1-4.05 1.67c-2.16.74-4.47 1.53-4.73 2.58M4.31 7.71c3.22 3.35 2.07 6.12 1 8.8-1.41 3.25-2.69 6.31 3.04 10.62a18.73 18.73 0 0 0 4.34 2c1.88.7 3.56 1.33 4.14 2.27.66-1 2.57-1.68 4.58-2.37a24.06 24.06 0 0 0 3.95-1.63c5.89-3.91 4.76-7 3.57-10.19-1-2.79-2.1-5.68 1.15-9.19C29 6.81 27 4.53 26.46 4c-1 .5-6 2.85-9.26-.94-3.25 3.65-8.06 1.3-9 .8-.55.52-2.81 2.69-3.92 3.89"/>
      <path class="cls-6" d="M11.59 13.54h-.46l.04-2.58-3.47-.04-.03 2.57h-.46l.03-3.03 4.39.05-.04 3.03zM25.91 13.68l-2.05.01.03-2.05 2.04-.01-.02 2.05z"/>
      <path class="cls-6" d="m27.09 13.7-.46-.01.03-2.57-3.47-.05-.03 2.58-.46-.01.04-3.03 4.38.05-.03 3.04zM14.1 27.77a9.34 9.34 0 0 1-5.76-6 13.45 13.45 0 0 1-.68-4.58h3.45c.21 6.2 3 7.09 3.33 7.17a3.17 3.17 0 0 1 .3-.34l.08-7h-.45l-.09 6.81c-.71-.35-2.6-1.75-2.72-6.85v-.23H7.24v.21a13.24 13.24 0 0 0 .68 5 10 10 0 0 0 6.62 6.48 3.46 3.46 0 0 1-.42-.63M27 17.18V17h-4.31v.22c-.24 5.07-2.16 6.44-2.89 6.78l.09-6.8h-.46l-.09 7.07.24.32c.13 0 3.15-.66 3.52-7.08h3.46a12.84 12.84 0 0 1-.63 4.49 8.78 8.78 0 0 1-6.13 5.84 3.4 3.4 0 0 1-.4.59 9.38 9.38 0 0 0 7-6.29 12.84 12.84 0 0 0 .65-5M17 23.19a2.93 2.93 0 0 1 1.11.22l.08-6.34L16 17l-.08 6.34a3 3 0 0 1 1.08-.15M16.93 29.49a3 3 0 0 1-1.07-.21v.4h2.19v-.42a3 3 0 0 1-1.12.2"/>
      <path class="cls-6" d="M25.62 17.84h-1.79a8 8 0 0 1-4 7.39 3.39 3.39 0 0 1 .2 1.15 3.84 3.84 0 0 1-.11.91c5.85-2.38 5.67-9.43 5.67-9.43M13.88 26.32a3.38 3.38 0 0 1 .25-1.2 8.05 8.05 0 0 1-3.79-7.49h-1.9s-.23 7 5.52 9.56a4.8 4.8 0 0 1-.08-.85M14.61 27.45h-.21a2.79 2.79 0 0 1-.2-1.07 2.88 2.88 0 0 1 1.06-2.19l.21-.17-.12.44-.09.37a2.29 2.29 0 0 0 .33 2l.05.05v.06a1.07 1.07 0 0 1-1 .54m-.08-.17h.08a.9.9 0 0 0 .8-.4 2.56 2.56 0 0 1-.33-2.15c0-.09.05-.18.07-.28a2.69 2.69 0 0 0-.78 1.87 2.62 2.62 0 0 0 .16 1M17 29.2a2.74 2.74 0 0 1-1.56-.51l-.21-.14h.26a4.15 4.15 0 0 0 1.77-.43c.45-.26.92-.59 1-1a.91.91 0 0 1 .77 0 .79.79 0 0 1 .4.65v.06A2.8 2.8 0 0 1 17 29.2m-1.24-.51A2.55 2.55 0 0 0 17 29a2.63 2.63 0 0 0 2.31-1.32.65.65 0 0 0-.31-.5.72.72 0 0 0-.57 0 2.16 2.16 0 0 1-1.08 1.09 4.09 4.09 0 0 1-1.59.43"/>
      <path class="cls-6" d="M15.27 28.55h-.06a3 3 0 0 1-.73-1l-.06-.13h.14a1.09 1.09 0 0 0 1-.51v-.08h.08a1 1 0 0 0 .44.16.74.74 0 0 0 .55-.18.79.79 0 0 0 .3-.49.73.73 0 0 1 1.17.31c.26.65-.31 1.09-1 1.48a4.46 4.46 0 0 1-2 .43m-.59-.93a2.55 2.55 0 0 0 .6.75 4.15 4.15 0 0 0 1.86-.4c.68-.4 1.09-.77.89-1.27a.59.59 0 0 0-.37-.35.58.58 0 0 0-.51.1 1 1 0 0 1-.35.56.9.9 0 0 1-.68.22 1.2 1.2 0 0 1-.44-.14 1.27 1.27 0 0 1-1 .53M19.81 26.62l-.18-.36a3.18 3.18 0 0 0-1.12-1.21 1.89 1.89 0 0 0-1.51-.33.69.69 0 0 1-.31-.57.72.72 0 0 1 .35-.61 2.83 2.83 0 0 1 2.74 2.7Zm-2.44-2.13a2.59 2.59 0 0 1 1.22.42 3.29 3.29 0 0 1 1 .92 2.64 2.64 0 0 0-2.49-2.15.57.57 0 0 0-.25.46.51.51 0 0 0 .19.4 1 1 0 0 1 .35-.05"/>
      <path class="cls-6" d="M16.2 27.08h-.06c-.62-.09-1-.65-1-1.5a5.1 5.1 0 0 1 .2-1.24c0-.1.05-.2.08-.31a2.78 2.78 0 0 1 1.31-.45h.22l-.15.16a.7.7 0 0 0 .06 1l.08.07-.09.06a.7.7 0 0 0-.18.2 1 1 0 0 0 .33 1.25.76.76 0 0 1-.32.49.81.81 0 0 1-.48.19m-.61-3c0 .09-.05.18-.07.27a4.86 4.86 0 0 0-.2 1.2c0 .76.32 1.26.84 1.33a.62.62 0 0 0 .42-.14.72.72 0 0 0 .24-.33 1.15 1.15 0 0 1-.25-1.53l.15-.18a.85.85 0 0 1-.22-.53.8.8 0 0 1 .1-.48 2.66 2.66 0 0 0-1 .39"/>
      <path class="cls-6" d="m19.46 27.72-.07-.22a.69.69 0 0 0-.36-.45.88.88 0 0 0-.67 0h-.11v-.12a.75.75 0 0 0-.06-.29.8.8 0 0 0-.48-.45.75.75 0 0 0-.66.13H17a1 1 0 0 1-.29-1.32c.3-.47.94-.45 1.8.06a2.88 2.88 0 0 1 1.27 1.57 2.81 2.81 0 0 1-.23.86Zm-.81-.93a1 1 0 0 1 .46.11.93.93 0 0 1 .36.35 3.08 3.08 0 0 0 .14-.6 2.76 2.76 0 0 0-1.18-1.45c-.45-.26-1.25-.63-1.58-.12a.85.85 0 0 0 .15 1.07.89.89 0 0 1 .75-.13 1 1 0 0 1 .59.55 1.29 1.29 0 0 1 .06.25 1.07 1.07 0 0 1 .25 0"/>
    </g>
  </g>
</svg>
